M48
; DRILL file {KiCad (5.1.5)-3} date 12/04/20 11:44:10
; FORMAT={-:-/ absolute / inch / decimal}
; #@! TF.CreationDate,2020-12-04T11:44:10+01:00
; #@! TF.GenerationSoftware,Kicad,Pcbnew,(5.1.5)-3
; #@! TF.FileFunction,Plated,1,2,PTH
FMAT,2
INCH
T1C0.0394
%
G90
G05
T1
X16.5Y-7.325
X16.6Y-7.325
X16.7Y-7.325
X16.8Y-7.325
X16.9Y-7.325
X17.0Y-7.325
X17.1Y-7.325
X17.2Y-7.325
X17.3Y-7.325
X17.4Y-7.325
X16.5Y-7.725
X16.6Y-7.725
X16.7Y-7.725
X16.8Y-7.725
X16.9Y-7.725
X17.0Y-7.725
X17.1Y-7.725
X17.2Y-7.725
X17.3Y-7.725
X17.4Y-7.725
X16.5Y-7.525
X16.6Y-7.525
X16.7Y-7.525
X16.8Y-7.525
X16.9Y-7.525
X17.0Y-7.525
X17.1Y-7.525
X17.2Y-7.525
X17.3Y-7.525
X17.4Y-7.525
X15.4Y-7.725
X15.5Y-7.725
X15.6Y-7.725
X15.7Y-7.725
X15.8Y-7.725
X15.9Y-7.725
X16.0Y-7.725
X16.1Y-7.725
X16.2Y-7.725
X16.3Y-7.725
X15.375Y-7.175
X15.375Y-7.275
X15.4Y-7.525
X15.5Y-7.525
X15.6Y-7.525
X15.7Y-7.525
X15.8Y-7.525
X15.9Y-7.525
X16.0Y-7.525
X16.1Y-7.525
X16.2Y-7.525
X16.3Y-7.525
T0
M30
