G04 #@! TF.GenerationSoftware,KiCad,Pcbnew,(5.1.5)-3*
G04 #@! TF.CreationDate,2020-12-04T11:44:09+01:00*
G04 #@! TF.ProjectId,SolderPractice,536f6c64-6572-4507-9261-63746963652e,rev?*
G04 #@! TF.SameCoordinates,Original*
G04 #@! TF.FileFunction,Legend,Bot*
G04 #@! TF.FilePolarity,Positive*
%FSLAX46Y46*%
G04 Gerber Fmt 4.6, Leading zero omitted, Abs format (unit mm)*
G04 Created by KiCad (PCBNEW (5.1.5)-3) date 2020-12-04 11:44:09*
%MOMM*%
%LPD*%
G04 APERTURE LIST*
%ADD10C,0.300000*%
%ADD11C,0.120000*%
%ADD12C,0.150000*%
G04 APERTURE END LIST*
D10*
X469304285Y-175446428D02*
X469447142Y-175375000D01*
X469590000Y-175232142D01*
X469804285Y-175017857D01*
X469947142Y-174946428D01*
X470090000Y-174946428D01*
X470018571Y-175303571D02*
X470161428Y-175232142D01*
X470304285Y-175089285D01*
X470375714Y-174803571D01*
X470375714Y-174303571D01*
X470304285Y-174017857D01*
X470161428Y-173875000D01*
X470018571Y-173803571D01*
X469732857Y-173803571D01*
X469590000Y-173875000D01*
X469447142Y-174017857D01*
X469375714Y-174303571D01*
X469375714Y-174803571D01*
X469447142Y-175089285D01*
X469590000Y-175232142D01*
X469732857Y-175303571D01*
X470018571Y-175303571D01*
X468232857Y-174517857D02*
X468732857Y-174517857D01*
X468732857Y-175303571D02*
X468732857Y-173803571D01*
X468018571Y-173803571D01*
X467447142Y-175303571D02*
X467447142Y-173803571D01*
X466590000Y-175303571D01*
X466590000Y-173803571D01*
X465875714Y-174732142D02*
X464732857Y-174732142D01*
X464090000Y-173946428D02*
X464018571Y-173875000D01*
X463875714Y-173803571D01*
X463518571Y-173803571D01*
X463375714Y-173875000D01*
X463304285Y-173946428D01*
X463232857Y-174089285D01*
X463232857Y-174232142D01*
X463304285Y-174446428D01*
X464161428Y-175303571D01*
X463232857Y-175303571D01*
X462304285Y-173803571D02*
X462161428Y-173803571D01*
X462018571Y-173875000D01*
X461947142Y-173946428D01*
X461875714Y-174089285D01*
X461804285Y-174375000D01*
X461804285Y-174732142D01*
X461875714Y-175017857D01*
X461947142Y-175160714D01*
X462018571Y-175232142D01*
X462161428Y-175303571D01*
X462304285Y-175303571D01*
X462447142Y-175232142D01*
X462518571Y-175160714D01*
X462590000Y-175017857D01*
X462661428Y-174732142D01*
X462661428Y-174375000D01*
X462590000Y-174089285D01*
X462518571Y-173946428D01*
X462447142Y-173875000D01*
X462304285Y-173803571D01*
X470161428Y-143553571D02*
X470875714Y-143553571D01*
X470875714Y-142053571D01*
X468661428Y-143696428D02*
X468804285Y-143625000D01*
X468947142Y-143482142D01*
X469161428Y-143267857D01*
X469304285Y-143196428D01*
X469447142Y-143196428D01*
X469375714Y-143553571D02*
X469518571Y-143482142D01*
X469661428Y-143339285D01*
X469732857Y-143053571D01*
X469732857Y-142553571D01*
X469661428Y-142267857D01*
X469518571Y-142125000D01*
X469375714Y-142053571D01*
X469090000Y-142053571D01*
X468947142Y-142125000D01*
X468804285Y-142267857D01*
X468732857Y-142553571D01*
X468732857Y-143053571D01*
X468804285Y-143339285D01*
X468947142Y-143482142D01*
X469090000Y-143553571D01*
X469375714Y-143553571D01*
X467590000Y-142767857D02*
X468090000Y-142767857D01*
X468090000Y-143553571D02*
X468090000Y-142053571D01*
X467375714Y-142053571D01*
X466804285Y-143553571D02*
X466804285Y-142053571D01*
X466232857Y-142053571D01*
X466090000Y-142125000D01*
X466018571Y-142196428D01*
X465947142Y-142339285D01*
X465947142Y-142553571D01*
X466018571Y-142696428D01*
X466090000Y-142767857D01*
X466232857Y-142839285D01*
X466804285Y-142839285D01*
X465304285Y-142982142D02*
X464161428Y-142982142D01*
X463590000Y-142053571D02*
X462661428Y-142053571D01*
X463161428Y-142625000D01*
X462947142Y-142625000D01*
X462804285Y-142696428D01*
X462732857Y-142767857D01*
X462661428Y-142910714D01*
X462661428Y-143267857D01*
X462732857Y-143410714D01*
X462804285Y-143482142D01*
X462947142Y-143553571D01*
X463375714Y-143553571D01*
X463518571Y-143482142D01*
X463590000Y-143410714D01*
X462090000Y-142196428D02*
X462018571Y-142125000D01*
X461875714Y-142053571D01*
X461518571Y-142053571D01*
X461375714Y-142125000D01*
X461304285Y-142196428D01*
X461232857Y-142339285D01*
X461232857Y-142482142D01*
X461304285Y-142696428D01*
X462161428Y-143553571D01*
X461232857Y-143553571D01*
X470161428Y-102913571D02*
X470875714Y-102913571D01*
X470875714Y-101413571D01*
X468661428Y-103056428D02*
X468804285Y-102985000D01*
X468947142Y-102842142D01*
X469161428Y-102627857D01*
X469304285Y-102556428D01*
X469447142Y-102556428D01*
X469375714Y-102913571D02*
X469518571Y-102842142D01*
X469661428Y-102699285D01*
X469732857Y-102413571D01*
X469732857Y-101913571D01*
X469661428Y-101627857D01*
X469518571Y-101485000D01*
X469375714Y-101413571D01*
X469090000Y-101413571D01*
X468947142Y-101485000D01*
X468804285Y-101627857D01*
X468732857Y-101913571D01*
X468732857Y-102413571D01*
X468804285Y-102699285D01*
X468947142Y-102842142D01*
X469090000Y-102913571D01*
X469375714Y-102913571D01*
X467590000Y-102127857D02*
X468090000Y-102127857D01*
X468090000Y-102913571D02*
X468090000Y-101413571D01*
X467375714Y-101413571D01*
X466804285Y-102913571D02*
X466804285Y-101413571D01*
X466232857Y-101413571D01*
X466090000Y-101485000D01*
X466018571Y-101556428D01*
X465947142Y-101699285D01*
X465947142Y-101913571D01*
X466018571Y-102056428D01*
X466090000Y-102127857D01*
X466232857Y-102199285D01*
X466804285Y-102199285D01*
X465304285Y-102342142D02*
X464161428Y-102342142D01*
X462804285Y-101413571D02*
X463090000Y-101413571D01*
X463232857Y-101485000D01*
X463304285Y-101556428D01*
X463447142Y-101770714D01*
X463518571Y-102056428D01*
X463518571Y-102627857D01*
X463447142Y-102770714D01*
X463375714Y-102842142D01*
X463232857Y-102913571D01*
X462947142Y-102913571D01*
X462804285Y-102842142D01*
X462732857Y-102770714D01*
X462661428Y-102627857D01*
X462661428Y-102270714D01*
X462732857Y-102127857D01*
X462804285Y-102056428D01*
X462947142Y-101985000D01*
X463232857Y-101985000D01*
X463375714Y-102056428D01*
X463447142Y-102127857D01*
X463518571Y-102270714D01*
X461375714Y-101913571D02*
X461375714Y-102913571D01*
X461732857Y-101342142D02*
X462090000Y-102413571D01*
X461161428Y-102413571D01*
X417984285Y-159992142D02*
X417770000Y-160063571D01*
X417412857Y-160063571D01*
X417270000Y-159992142D01*
X417198571Y-159920714D01*
X417127142Y-159777857D01*
X417127142Y-159635000D01*
X417198571Y-159492142D01*
X417270000Y-159420714D01*
X417412857Y-159349285D01*
X417698571Y-159277857D01*
X417841428Y-159206428D01*
X417912857Y-159135000D01*
X417984285Y-158992142D01*
X417984285Y-158849285D01*
X417912857Y-158706428D01*
X417841428Y-158635000D01*
X417698571Y-158563571D01*
X417341428Y-158563571D01*
X417127142Y-158635000D01*
X416198571Y-158563571D02*
X415912857Y-158563571D01*
X415770000Y-158635000D01*
X415627142Y-158777857D01*
X415555714Y-159063571D01*
X415555714Y-159563571D01*
X415627142Y-159849285D01*
X415770000Y-159992142D01*
X415912857Y-160063571D01*
X416198571Y-160063571D01*
X416341428Y-159992142D01*
X416484285Y-159849285D01*
X416555714Y-159563571D01*
X416555714Y-159063571D01*
X416484285Y-158777857D01*
X416341428Y-158635000D01*
X416198571Y-158563571D01*
X414912857Y-160063571D02*
X414912857Y-158563571D01*
X413341428Y-159920714D02*
X413412857Y-159992142D01*
X413627142Y-160063571D01*
X413770000Y-160063571D01*
X413984285Y-159992142D01*
X414127142Y-159849285D01*
X414198571Y-159706428D01*
X414270000Y-159420714D01*
X414270000Y-159206428D01*
X414198571Y-158920714D01*
X414127142Y-158777857D01*
X413984285Y-158635000D01*
X413770000Y-158563571D01*
X413627142Y-158563571D01*
X413412857Y-158635000D01*
X413341428Y-158706428D01*
X412698571Y-159492142D02*
X411555714Y-159492142D01*
X410627142Y-159206428D02*
X410770000Y-159135000D01*
X410841428Y-159063571D01*
X410912857Y-158920714D01*
X410912857Y-158849285D01*
X410841428Y-158706428D01*
X410770000Y-158635000D01*
X410627142Y-158563571D01*
X410341428Y-158563571D01*
X410198571Y-158635000D01*
X410127142Y-158706428D01*
X410055714Y-158849285D01*
X410055714Y-158920714D01*
X410127142Y-159063571D01*
X410198571Y-159135000D01*
X410341428Y-159206428D01*
X410627142Y-159206428D01*
X410770000Y-159277857D01*
X410841428Y-159349285D01*
X410912857Y-159492142D01*
X410912857Y-159777857D01*
X410841428Y-159920714D01*
X410770000Y-159992142D01*
X410627142Y-160063571D01*
X410341428Y-160063571D01*
X410198571Y-159992142D01*
X410127142Y-159920714D01*
X410055714Y-159777857D01*
X410055714Y-159492142D01*
X410127142Y-159349285D01*
X410198571Y-159277857D01*
X410341428Y-159206428D01*
X418698571Y-129512142D02*
X418484285Y-129583571D01*
X418127142Y-129583571D01*
X417984285Y-129512142D01*
X417912857Y-129440714D01*
X417841428Y-129297857D01*
X417841428Y-129155000D01*
X417912857Y-129012142D01*
X417984285Y-128940714D01*
X418127142Y-128869285D01*
X418412857Y-128797857D01*
X418555714Y-128726428D01*
X418627142Y-128655000D01*
X418698571Y-128512142D01*
X418698571Y-128369285D01*
X418627142Y-128226428D01*
X418555714Y-128155000D01*
X418412857Y-128083571D01*
X418055714Y-128083571D01*
X417841428Y-128155000D01*
X416912857Y-128083571D02*
X416627142Y-128083571D01*
X416484285Y-128155000D01*
X416341428Y-128297857D01*
X416270000Y-128583571D01*
X416270000Y-129083571D01*
X416341428Y-129369285D01*
X416484285Y-129512142D01*
X416627142Y-129583571D01*
X416912857Y-129583571D01*
X417055714Y-129512142D01*
X417198571Y-129369285D01*
X417270000Y-129083571D01*
X417270000Y-128583571D01*
X417198571Y-128297857D01*
X417055714Y-128155000D01*
X416912857Y-128083571D01*
X415627142Y-129583571D02*
X415627142Y-128083571D01*
X414055714Y-129440714D02*
X414127142Y-129512142D01*
X414341428Y-129583571D01*
X414484285Y-129583571D01*
X414698571Y-129512142D01*
X414841428Y-129369285D01*
X414912857Y-129226428D01*
X414984285Y-128940714D01*
X414984285Y-128726428D01*
X414912857Y-128440714D01*
X414841428Y-128297857D01*
X414698571Y-128155000D01*
X414484285Y-128083571D01*
X414341428Y-128083571D01*
X414127142Y-128155000D01*
X414055714Y-128226428D01*
X413412857Y-129012142D02*
X412270000Y-129012142D01*
X410770000Y-129583571D02*
X411627142Y-129583571D01*
X411198571Y-129583571D02*
X411198571Y-128083571D01*
X411341428Y-128297857D01*
X411484285Y-128440714D01*
X411627142Y-128512142D01*
X409484285Y-128083571D02*
X409770000Y-128083571D01*
X409912857Y-128155000D01*
X409984285Y-128226428D01*
X410127142Y-128440714D01*
X410198571Y-128726428D01*
X410198571Y-129297857D01*
X410127142Y-129440714D01*
X410055714Y-129512142D01*
X409912857Y-129583571D01*
X409627142Y-129583571D01*
X409484285Y-129512142D01*
X409412857Y-129440714D01*
X409341428Y-129297857D01*
X409341428Y-128940714D01*
X409412857Y-128797857D01*
X409484285Y-128726428D01*
X409627142Y-128655000D01*
X409912857Y-128655000D01*
X410055714Y-128726428D01*
X410127142Y-128797857D01*
X410198571Y-128940714D01*
X419055714Y-102842142D02*
X418841428Y-102913571D01*
X418484285Y-102913571D01*
X418341428Y-102842142D01*
X418270000Y-102770714D01*
X418198571Y-102627857D01*
X418198571Y-102485000D01*
X418270000Y-102342142D01*
X418341428Y-102270714D01*
X418484285Y-102199285D01*
X418770000Y-102127857D01*
X418912857Y-102056428D01*
X418984285Y-101985000D01*
X419055714Y-101842142D01*
X419055714Y-101699285D01*
X418984285Y-101556428D01*
X418912857Y-101485000D01*
X418770000Y-101413571D01*
X418412857Y-101413571D01*
X418198571Y-101485000D01*
X417627142Y-102842142D02*
X417412857Y-102913571D01*
X417055714Y-102913571D01*
X416912857Y-102842142D01*
X416841428Y-102770714D01*
X416770000Y-102627857D01*
X416770000Y-102485000D01*
X416841428Y-102342142D01*
X416912857Y-102270714D01*
X417055714Y-102199285D01*
X417341428Y-102127857D01*
X417484285Y-102056428D01*
X417555714Y-101985000D01*
X417627142Y-101842142D01*
X417627142Y-101699285D01*
X417555714Y-101556428D01*
X417484285Y-101485000D01*
X417341428Y-101413571D01*
X416984285Y-101413571D01*
X416770000Y-101485000D01*
X415841428Y-101413571D02*
X415555714Y-101413571D01*
X415412857Y-101485000D01*
X415270000Y-101627857D01*
X415198571Y-101913571D01*
X415198571Y-102413571D01*
X415270000Y-102699285D01*
X415412857Y-102842142D01*
X415555714Y-102913571D01*
X415841428Y-102913571D01*
X415984285Y-102842142D01*
X416127142Y-102699285D01*
X416198571Y-102413571D01*
X416198571Y-101913571D01*
X416127142Y-101627857D01*
X415984285Y-101485000D01*
X415841428Y-101413571D01*
X414555714Y-102913571D02*
X414555714Y-101413571D01*
X413984285Y-101413571D01*
X413841428Y-101485000D01*
X413770000Y-101556428D01*
X413698571Y-101699285D01*
X413698571Y-101913571D01*
X413770000Y-102056428D01*
X413841428Y-102127857D01*
X413984285Y-102199285D01*
X414555714Y-102199285D01*
X413055714Y-102342142D02*
X411912857Y-102342142D01*
X411270000Y-101556428D02*
X411198571Y-101485000D01*
X411055714Y-101413571D01*
X410698571Y-101413571D01*
X410555714Y-101485000D01*
X410484285Y-101556428D01*
X410412857Y-101699285D01*
X410412857Y-101842142D01*
X410484285Y-102056428D01*
X411341428Y-102913571D01*
X410412857Y-102913571D01*
X409127142Y-101913571D02*
X409127142Y-102913571D01*
X409484285Y-101342142D02*
X409841428Y-102413571D01*
X408912857Y-102413571D01*
D11*
X470505000Y-116555000D02*
X469165000Y-116555000D01*
X470505000Y-117505000D02*
X470505000Y-116555000D01*
X471455000Y-117505000D02*
X470505000Y-117505000D01*
X480725000Y-117505000D02*
X480725000Y-116555000D01*
X479775000Y-117505000D02*
X480725000Y-117505000D01*
X470505000Y-107285000D02*
X470505000Y-108235000D01*
X471455000Y-107285000D02*
X470505000Y-107285000D01*
X480725000Y-107285000D02*
X480725000Y-108235000D01*
X479775000Y-107285000D02*
X480725000Y-107285000D01*
X472005000Y-153805000D02*
X470690000Y-153805000D01*
X472005000Y-154105000D02*
X472005000Y-153805000D01*
X472305000Y-154105000D02*
X472005000Y-154105000D01*
X479225000Y-154105000D02*
X479225000Y-153805000D01*
X478925000Y-154105000D02*
X479225000Y-154105000D01*
X472005000Y-146885000D02*
X472005000Y-147185000D01*
X472305000Y-146885000D02*
X472005000Y-146885000D01*
X479225000Y-146885000D02*
X479225000Y-147185000D01*
X478925000Y-146885000D02*
X479225000Y-146885000D01*
X394970000Y-144799999D02*
X398420000Y-144799999D01*
X394970000Y-144799999D02*
X393020000Y-144799999D01*
X394970000Y-154919999D02*
X396920000Y-154919999D01*
X394970000Y-154919999D02*
X393020000Y-154919999D01*
X394970000Y-132100000D02*
X398420000Y-132100000D01*
X394970000Y-132100000D02*
X393020000Y-132100000D01*
X394970000Y-142220000D02*
X396920000Y-142220000D01*
X394970000Y-142220000D02*
X393020000Y-142220000D01*
X450185000Y-116555000D02*
X448845000Y-116555000D01*
X450185000Y-117505000D02*
X450185000Y-116555000D01*
X451135000Y-117505000D02*
X450185000Y-117505000D01*
X460405000Y-117505000D02*
X460405000Y-116555000D01*
X459455000Y-117505000D02*
X460405000Y-117505000D01*
X450185000Y-107285000D02*
X450185000Y-108235000D01*
X451135000Y-107285000D02*
X450185000Y-107285000D01*
X460405000Y-107285000D02*
X460405000Y-108235000D01*
X459455000Y-107285000D02*
X460405000Y-107285000D01*
X451685000Y-153805000D02*
X450370000Y-153805000D01*
X451685000Y-154105000D02*
X451685000Y-153805000D01*
X451985000Y-154105000D02*
X451685000Y-154105000D01*
X458905000Y-154105000D02*
X458905000Y-153805000D01*
X458605000Y-154105000D02*
X458905000Y-154105000D01*
X451685000Y-146885000D02*
X451685000Y-147185000D01*
X451985000Y-146885000D02*
X451685000Y-146885000D01*
X458905000Y-146885000D02*
X458905000Y-147185000D01*
X458605000Y-146885000D02*
X458905000Y-146885000D01*
X407670000Y-144799999D02*
X411120000Y-144799999D01*
X407670000Y-144799999D02*
X405720000Y-144799999D01*
X407670000Y-154919999D02*
X409620000Y-154919999D01*
X407670000Y-154919999D02*
X405720000Y-154919999D01*
X407670000Y-132100000D02*
X411120000Y-132100000D01*
X407670000Y-132100000D02*
X405720000Y-132100000D01*
X407670000Y-142220000D02*
X409620000Y-142220000D01*
X407670000Y-142220000D02*
X405720000Y-142220000D01*
X470505000Y-136875000D02*
X469165000Y-136875000D01*
X470505000Y-137825000D02*
X470505000Y-136875000D01*
X471455000Y-137825000D02*
X470505000Y-137825000D01*
X480725000Y-137825000D02*
X480725000Y-136875000D01*
X479775000Y-137825000D02*
X480725000Y-137825000D01*
X470505000Y-127605000D02*
X470505000Y-128555000D01*
X471455000Y-127605000D02*
X470505000Y-127605000D01*
X480725000Y-127605000D02*
X480725000Y-128555000D01*
X479775000Y-127605000D02*
X480725000Y-127605000D01*
X472005000Y-168410000D02*
X470690000Y-168410000D01*
X472005000Y-168710000D02*
X472005000Y-168410000D01*
X472305000Y-168710000D02*
X472005000Y-168710000D01*
X479225000Y-168710000D02*
X479225000Y-168410000D01*
X478925000Y-168710000D02*
X479225000Y-168710000D01*
X472005000Y-161490000D02*
X472005000Y-161790000D01*
X472305000Y-161490000D02*
X472005000Y-161490000D01*
X479225000Y-161490000D02*
X479225000Y-161790000D01*
X478925000Y-161490000D02*
X479225000Y-161490000D01*
X420370000Y-144799999D02*
X423820000Y-144799999D01*
X420370000Y-144799999D02*
X418420000Y-144799999D01*
X420370000Y-154919999D02*
X422320000Y-154919999D01*
X420370000Y-154919999D02*
X418420000Y-154919999D01*
X420370000Y-132100000D02*
X423820000Y-132100000D01*
X420370000Y-132100000D02*
X418420000Y-132100000D01*
X420370000Y-142220000D02*
X422320000Y-142220000D01*
X420370000Y-142220000D02*
X418420000Y-142220000D01*
X450185000Y-136875000D02*
X448845000Y-136875000D01*
X450185000Y-137825000D02*
X450185000Y-136875000D01*
X451135000Y-137825000D02*
X450185000Y-137825000D01*
X460405000Y-137825000D02*
X460405000Y-136875000D01*
X459455000Y-137825000D02*
X460405000Y-137825000D01*
X450185000Y-127605000D02*
X450185000Y-128555000D01*
X451135000Y-127605000D02*
X450185000Y-127605000D01*
X460405000Y-127605000D02*
X460405000Y-128555000D01*
X459455000Y-127605000D02*
X460405000Y-127605000D01*
X451685000Y-168410000D02*
X450370000Y-168410000D01*
X451685000Y-168710000D02*
X451685000Y-168410000D01*
X451985000Y-168710000D02*
X451685000Y-168710000D01*
X458905000Y-168710000D02*
X458905000Y-168410000D01*
X458605000Y-168710000D02*
X458905000Y-168710000D01*
X451685000Y-161490000D02*
X451685000Y-161790000D01*
X451985000Y-161490000D02*
X451685000Y-161490000D01*
X458905000Y-161490000D02*
X458905000Y-161790000D01*
X458605000Y-161490000D02*
X458905000Y-161490000D01*
X433070000Y-144799999D02*
X436520000Y-144799999D01*
X433070000Y-144799999D02*
X431120000Y-144799999D01*
X433070000Y-154919999D02*
X435020000Y-154919999D01*
X433070000Y-154919999D02*
X431120000Y-154919999D01*
X433070000Y-132100000D02*
X436520000Y-132100000D01*
X433070000Y-132100000D02*
X431120000Y-132100000D01*
X433070000Y-142220000D02*
X435020000Y-142220000D01*
X433070000Y-142220000D02*
X431120000Y-142220000D01*
X394970000Y-170160000D02*
X398420000Y-170160000D01*
X394970000Y-170160000D02*
X393020000Y-170160000D01*
X394970000Y-175280000D02*
X396920000Y-175280000D01*
X394970000Y-175280000D02*
X393020000Y-175280000D01*
X394970000Y-162540000D02*
X398420000Y-162540000D01*
X394970000Y-162540000D02*
X393020000Y-162540000D01*
X394970000Y-167660000D02*
X396920000Y-167660000D01*
X394970000Y-167660000D02*
X393020000Y-167660000D01*
X477405000Y-183085000D02*
X476680000Y-183085000D01*
X480900000Y-178865000D02*
X480900000Y-179590000D01*
X480175000Y-178865000D02*
X480900000Y-178865000D01*
X476680000Y-178865000D02*
X476680000Y-179590000D01*
X477405000Y-178865000D02*
X476680000Y-178865000D01*
X480900000Y-183085000D02*
X480900000Y-182360000D01*
X480175000Y-183085000D02*
X480900000Y-183085000D01*
X477405000Y-193245000D02*
X476680000Y-193245000D01*
X480900000Y-189025000D02*
X480900000Y-189750000D01*
X480175000Y-189025000D02*
X480900000Y-189025000D01*
X476680000Y-189025000D02*
X476680000Y-189750000D01*
X477405000Y-189025000D02*
X476680000Y-189025000D01*
X480900000Y-193245000D02*
X480900000Y-192520000D01*
X480175000Y-193245000D02*
X480900000Y-193245000D01*
D12*
X397845000Y-116550000D02*
X399445000Y-116550000D01*
X397845000Y-124975000D02*
X392095000Y-124975000D01*
X397845000Y-116325000D02*
X392095000Y-116325000D01*
X397845000Y-124975000D02*
X397845000Y-124675000D01*
X392095000Y-124975000D02*
X392095000Y-124675000D01*
X392095000Y-116325000D02*
X392095000Y-116625000D01*
X397845000Y-116325000D02*
X397845000Y-116550000D01*
X397845000Y-105120000D02*
X399445000Y-105120000D01*
X397845000Y-113545000D02*
X392095000Y-113545000D01*
X397845000Y-104895000D02*
X392095000Y-104895000D01*
X397845000Y-113545000D02*
X397845000Y-113245000D01*
X392095000Y-113545000D02*
X392095000Y-113245000D01*
X392095000Y-104895000D02*
X392095000Y-105195000D01*
X397845000Y-104895000D02*
X397845000Y-105120000D01*
D11*
X407670000Y-170160000D02*
X411120000Y-170160000D01*
X407670000Y-170160000D02*
X405720000Y-170160000D01*
X407670000Y-175280000D02*
X409620000Y-175280000D01*
X407670000Y-175280000D02*
X405720000Y-175280000D01*
X407670000Y-162540000D02*
X411120000Y-162540000D01*
X407670000Y-162540000D02*
X405720000Y-162540000D01*
X407670000Y-167660000D02*
X409620000Y-167660000D01*
X407670000Y-167660000D02*
X405720000Y-167660000D01*
X468515000Y-183085000D02*
X467790000Y-183085000D01*
X472010000Y-178865000D02*
X472010000Y-179590000D01*
X471285000Y-178865000D02*
X472010000Y-178865000D01*
X467790000Y-178865000D02*
X467790000Y-179590000D01*
X468515000Y-178865000D02*
X467790000Y-178865000D01*
X472010000Y-183085000D02*
X472010000Y-182360000D01*
X471285000Y-183085000D02*
X472010000Y-183085000D01*
X468515000Y-193245000D02*
X467790000Y-193245000D01*
X472010000Y-189025000D02*
X472010000Y-189750000D01*
X471285000Y-189025000D02*
X472010000Y-189025000D01*
X467790000Y-189025000D02*
X467790000Y-189750000D01*
X468515000Y-189025000D02*
X467790000Y-189025000D01*
X472010000Y-193245000D02*
X472010000Y-192520000D01*
X471285000Y-193245000D02*
X472010000Y-193245000D01*
D12*
X410545000Y-116550000D02*
X412145000Y-116550000D01*
X410545000Y-124975000D02*
X404795000Y-124975000D01*
X410545000Y-116325000D02*
X404795000Y-116325000D01*
X410545000Y-124975000D02*
X410545000Y-124675000D01*
X404795000Y-124975000D02*
X404795000Y-124675000D01*
X404795000Y-116325000D02*
X404795000Y-116625000D01*
X410545000Y-116325000D02*
X410545000Y-116550000D01*
X410545000Y-105120000D02*
X412145000Y-105120000D01*
X410545000Y-113545000D02*
X404795000Y-113545000D01*
X410545000Y-104895000D02*
X404795000Y-104895000D01*
X410545000Y-113545000D02*
X410545000Y-113245000D01*
X404795000Y-113545000D02*
X404795000Y-113245000D01*
X404795000Y-104895000D02*
X404795000Y-105195000D01*
X410545000Y-104895000D02*
X410545000Y-105120000D01*
D11*
X420370000Y-170160000D02*
X423820000Y-170160000D01*
X420370000Y-170160000D02*
X418420000Y-170160000D01*
X420370000Y-175280000D02*
X422320000Y-175280000D01*
X420370000Y-175280000D02*
X418420000Y-175280000D01*
X420370000Y-162540000D02*
X423820000Y-162540000D01*
X420370000Y-162540000D02*
X418420000Y-162540000D01*
X420370000Y-167660000D02*
X422320000Y-167660000D01*
X420370000Y-167660000D02*
X418420000Y-167660000D01*
X459625000Y-183085000D02*
X458900000Y-183085000D01*
X463120000Y-178865000D02*
X463120000Y-179590000D01*
X462395000Y-178865000D02*
X463120000Y-178865000D01*
X458900000Y-178865000D02*
X458900000Y-179590000D01*
X459625000Y-178865000D02*
X458900000Y-178865000D01*
X463120000Y-183085000D02*
X463120000Y-182360000D01*
X462395000Y-183085000D02*
X463120000Y-183085000D01*
X459625000Y-193245000D02*
X458900000Y-193245000D01*
X463120000Y-189025000D02*
X463120000Y-189750000D01*
X462395000Y-189025000D02*
X463120000Y-189025000D01*
X458900000Y-189025000D02*
X458900000Y-189750000D01*
X459625000Y-189025000D02*
X458900000Y-189025000D01*
X463120000Y-193245000D02*
X463120000Y-192520000D01*
X462395000Y-193245000D02*
X463120000Y-193245000D01*
D12*
X423245000Y-116550000D02*
X424845000Y-116550000D01*
X423245000Y-124975000D02*
X417495000Y-124975000D01*
X423245000Y-116325000D02*
X417495000Y-116325000D01*
X423245000Y-124975000D02*
X423245000Y-124675000D01*
X417495000Y-124975000D02*
X417495000Y-124675000D01*
X417495000Y-116325000D02*
X417495000Y-116625000D01*
X423245000Y-116325000D02*
X423245000Y-116550000D01*
X423245000Y-105120000D02*
X424845000Y-105120000D01*
X423245000Y-113545000D02*
X417495000Y-113545000D01*
X423245000Y-104895000D02*
X417495000Y-104895000D01*
X423245000Y-113545000D02*
X423245000Y-113245000D01*
X417495000Y-113545000D02*
X417495000Y-113245000D01*
X417495000Y-104895000D02*
X417495000Y-105195000D01*
X423245000Y-104895000D02*
X423245000Y-105120000D01*
D11*
X433070000Y-170160000D02*
X436520000Y-170160000D01*
X433070000Y-170160000D02*
X431120000Y-170160000D01*
X433070000Y-175280000D02*
X435020000Y-175280000D01*
X433070000Y-175280000D02*
X431120000Y-175280000D01*
X433070000Y-162540000D02*
X436520000Y-162540000D01*
X433070000Y-162540000D02*
X431120000Y-162540000D01*
X433070000Y-167660000D02*
X435020000Y-167660000D01*
X433070000Y-167660000D02*
X431120000Y-167660000D01*
X450735000Y-183085000D02*
X450010000Y-183085000D01*
X454230000Y-178865000D02*
X454230000Y-179590000D01*
X453505000Y-178865000D02*
X454230000Y-178865000D01*
X450010000Y-178865000D02*
X450010000Y-179590000D01*
X450735000Y-178865000D02*
X450010000Y-178865000D01*
X454230000Y-183085000D02*
X454230000Y-182360000D01*
X453505000Y-183085000D02*
X454230000Y-183085000D01*
X450735000Y-193245000D02*
X450010000Y-193245000D01*
X454230000Y-189025000D02*
X454230000Y-189750000D01*
X453505000Y-189025000D02*
X454230000Y-189025000D01*
X450010000Y-189025000D02*
X450010000Y-189750000D01*
X450735000Y-189025000D02*
X450010000Y-189025000D01*
X454230000Y-193245000D02*
X454230000Y-192520000D01*
X453505000Y-193245000D02*
X454230000Y-193245000D01*
D12*
X435945000Y-116550000D02*
X437545000Y-116550000D01*
X435945000Y-124975000D02*
X430195000Y-124975000D01*
X435945000Y-116325000D02*
X430195000Y-116325000D01*
X435945000Y-124975000D02*
X435945000Y-124675000D01*
X430195000Y-124975000D02*
X430195000Y-124675000D01*
X430195000Y-116325000D02*
X430195000Y-116625000D01*
X435945000Y-116325000D02*
X435945000Y-116550000D01*
X435945000Y-105120000D02*
X437545000Y-105120000D01*
X435945000Y-113545000D02*
X430195000Y-113545000D01*
X435945000Y-104895000D02*
X430195000Y-104895000D01*
X435945000Y-113545000D02*
X435945000Y-113245000D01*
X430195000Y-113545000D02*
X430195000Y-113245000D01*
X430195000Y-104895000D02*
X430195000Y-105195000D01*
X435945000Y-104895000D02*
X435945000Y-105120000D01*
X476853095Y-119247380D02*
X476853095Y-120056904D01*
X476805476Y-120152142D01*
X476757857Y-120199761D01*
X476662619Y-120247380D01*
X476472142Y-120247380D01*
X476376904Y-120199761D01*
X476329285Y-120152142D01*
X476281666Y-120056904D01*
X476281666Y-119247380D01*
X475376904Y-119580714D02*
X475376904Y-120247380D01*
X475615000Y-119199761D02*
X475853095Y-119914047D01*
X475234047Y-119914047D01*
X474662619Y-119247380D02*
X474567380Y-119247380D01*
X474472142Y-119295000D01*
X474424523Y-119342619D01*
X474376904Y-119437857D01*
X474329285Y-119628333D01*
X474329285Y-119866428D01*
X474376904Y-120056904D01*
X474424523Y-120152142D01*
X474472142Y-120199761D01*
X474567380Y-120247380D01*
X474662619Y-120247380D01*
X474757857Y-120199761D01*
X474805476Y-120152142D01*
X474853095Y-120056904D01*
X474900714Y-119866428D01*
X474900714Y-119628333D01*
X474853095Y-119437857D01*
X474805476Y-119342619D01*
X474757857Y-119295000D01*
X474662619Y-119247380D01*
X476853095Y-155827380D02*
X476853095Y-156636904D01*
X476805476Y-156732142D01*
X476757857Y-156779761D01*
X476662619Y-156827380D01*
X476472142Y-156827380D01*
X476376904Y-156779761D01*
X476329285Y-156732142D01*
X476281666Y-156636904D01*
X476281666Y-155827380D01*
X475900714Y-155827380D02*
X475281666Y-155827380D01*
X475615000Y-156208333D01*
X475472142Y-156208333D01*
X475376904Y-156255952D01*
X475329285Y-156303571D01*
X475281666Y-156398809D01*
X475281666Y-156636904D01*
X475329285Y-156732142D01*
X475376904Y-156779761D01*
X475472142Y-156827380D01*
X475757857Y-156827380D01*
X475853095Y-156779761D01*
X475900714Y-156732142D01*
X474805476Y-156827380D02*
X474615000Y-156827380D01*
X474519761Y-156779761D01*
X474472142Y-156732142D01*
X474376904Y-156589285D01*
X474329285Y-156398809D01*
X474329285Y-156017857D01*
X474376904Y-155922619D01*
X474424523Y-155875000D01*
X474519761Y-155827380D01*
X474710238Y-155827380D01*
X474805476Y-155875000D01*
X474853095Y-155922619D01*
X474900714Y-156017857D01*
X474900714Y-156255952D01*
X474853095Y-156351190D01*
X474805476Y-156398809D01*
X474710238Y-156446428D01*
X474519761Y-156446428D01*
X474424523Y-156398809D01*
X474376904Y-156351190D01*
X474329285Y-156255952D01*
X396208095Y-143412379D02*
X396208095Y-144221903D01*
X396160476Y-144317141D01*
X396112857Y-144364760D01*
X396017619Y-144412379D01*
X395827142Y-144412379D01*
X395731904Y-144364760D01*
X395684285Y-144317141D01*
X395636666Y-144221903D01*
X395636666Y-143412379D01*
X395255714Y-143412379D02*
X394636666Y-143412379D01*
X394970000Y-143793332D01*
X394827142Y-143793332D01*
X394731904Y-143840951D01*
X394684285Y-143888570D01*
X394636666Y-143983808D01*
X394636666Y-144221903D01*
X394684285Y-144317141D01*
X394731904Y-144364760D01*
X394827142Y-144412379D01*
X395112857Y-144412379D01*
X395208095Y-144364760D01*
X395255714Y-144317141D01*
X394065238Y-143840951D02*
X394160476Y-143793332D01*
X394208095Y-143745713D01*
X394255714Y-143650475D01*
X394255714Y-143602856D01*
X394208095Y-143507618D01*
X394160476Y-143459999D01*
X394065238Y-143412379D01*
X393874761Y-143412379D01*
X393779523Y-143459999D01*
X393731904Y-143507618D01*
X393684285Y-143602856D01*
X393684285Y-143650475D01*
X393731904Y-143745713D01*
X393779523Y-143793332D01*
X393874761Y-143840951D01*
X394065238Y-143840951D01*
X394160476Y-143888570D01*
X394208095Y-143936189D01*
X394255714Y-144031427D01*
X394255714Y-144221903D01*
X394208095Y-144317141D01*
X394160476Y-144364760D01*
X394065238Y-144412379D01*
X393874761Y-144412379D01*
X393779523Y-144364760D01*
X393731904Y-144317141D01*
X393684285Y-144221903D01*
X393684285Y-144031427D01*
X393731904Y-143936189D01*
X393779523Y-143888570D01*
X393874761Y-143840951D01*
X396208095Y-130712380D02*
X396208095Y-131521904D01*
X396160476Y-131617142D01*
X396112857Y-131664761D01*
X396017619Y-131712380D01*
X395827142Y-131712380D01*
X395731904Y-131664761D01*
X395684285Y-131617142D01*
X395636666Y-131521904D01*
X395636666Y-130712380D01*
X395255714Y-130712380D02*
X394636666Y-130712380D01*
X394970000Y-131093333D01*
X394827142Y-131093333D01*
X394731904Y-131140952D01*
X394684285Y-131188571D01*
X394636666Y-131283809D01*
X394636666Y-131521904D01*
X394684285Y-131617142D01*
X394731904Y-131664761D01*
X394827142Y-131712380D01*
X395112857Y-131712380D01*
X395208095Y-131664761D01*
X395255714Y-131617142D01*
X394303333Y-130712380D02*
X393636666Y-130712380D01*
X394065238Y-131712380D01*
X456533095Y-119247380D02*
X456533095Y-120056904D01*
X456485476Y-120152142D01*
X456437857Y-120199761D01*
X456342619Y-120247380D01*
X456152142Y-120247380D01*
X456056904Y-120199761D01*
X456009285Y-120152142D01*
X455961666Y-120056904D01*
X455961666Y-119247380D01*
X455580714Y-119247380D02*
X454961666Y-119247380D01*
X455295000Y-119628333D01*
X455152142Y-119628333D01*
X455056904Y-119675952D01*
X455009285Y-119723571D01*
X454961666Y-119818809D01*
X454961666Y-120056904D01*
X455009285Y-120152142D01*
X455056904Y-120199761D01*
X455152142Y-120247380D01*
X455437857Y-120247380D01*
X455533095Y-120199761D01*
X455580714Y-120152142D01*
X454104523Y-119247380D02*
X454295000Y-119247380D01*
X454390238Y-119295000D01*
X454437857Y-119342619D01*
X454533095Y-119485476D01*
X454580714Y-119675952D01*
X454580714Y-120056904D01*
X454533095Y-120152142D01*
X454485476Y-120199761D01*
X454390238Y-120247380D01*
X454199761Y-120247380D01*
X454104523Y-120199761D01*
X454056904Y-120152142D01*
X454009285Y-120056904D01*
X454009285Y-119818809D01*
X454056904Y-119723571D01*
X454104523Y-119675952D01*
X454199761Y-119628333D01*
X454390238Y-119628333D01*
X454485476Y-119675952D01*
X454533095Y-119723571D01*
X454580714Y-119818809D01*
X456533095Y-155827380D02*
X456533095Y-156636904D01*
X456485476Y-156732142D01*
X456437857Y-156779761D01*
X456342619Y-156827380D01*
X456152142Y-156827380D01*
X456056904Y-156779761D01*
X456009285Y-156732142D01*
X455961666Y-156636904D01*
X455961666Y-155827380D01*
X455580714Y-155827380D02*
X454961666Y-155827380D01*
X455295000Y-156208333D01*
X455152142Y-156208333D01*
X455056904Y-156255952D01*
X455009285Y-156303571D01*
X454961666Y-156398809D01*
X454961666Y-156636904D01*
X455009285Y-156732142D01*
X455056904Y-156779761D01*
X455152142Y-156827380D01*
X455437857Y-156827380D01*
X455533095Y-156779761D01*
X455580714Y-156732142D01*
X454056904Y-155827380D02*
X454533095Y-155827380D01*
X454580714Y-156303571D01*
X454533095Y-156255952D01*
X454437857Y-156208333D01*
X454199761Y-156208333D01*
X454104523Y-156255952D01*
X454056904Y-156303571D01*
X454009285Y-156398809D01*
X454009285Y-156636904D01*
X454056904Y-156732142D01*
X454104523Y-156779761D01*
X454199761Y-156827380D01*
X454437857Y-156827380D01*
X454533095Y-156779761D01*
X454580714Y-156732142D01*
X408908095Y-143412379D02*
X408908095Y-144221903D01*
X408860476Y-144317141D01*
X408812857Y-144364760D01*
X408717619Y-144412379D01*
X408527142Y-144412379D01*
X408431904Y-144364760D01*
X408384285Y-144317141D01*
X408336666Y-144221903D01*
X408336666Y-143412379D01*
X407955714Y-143412379D02*
X407336666Y-143412379D01*
X407670000Y-143793332D01*
X407527142Y-143793332D01*
X407431904Y-143840951D01*
X407384285Y-143888570D01*
X407336666Y-143983808D01*
X407336666Y-144221903D01*
X407384285Y-144317141D01*
X407431904Y-144364760D01*
X407527142Y-144412379D01*
X407812857Y-144412379D01*
X407908095Y-144364760D01*
X407955714Y-144317141D01*
X406479523Y-143745713D02*
X406479523Y-144412379D01*
X406717619Y-143364760D02*
X406955714Y-144079046D01*
X406336666Y-144079046D01*
X408908095Y-130712380D02*
X408908095Y-131521904D01*
X408860476Y-131617142D01*
X408812857Y-131664761D01*
X408717619Y-131712380D01*
X408527142Y-131712380D01*
X408431904Y-131664761D01*
X408384285Y-131617142D01*
X408336666Y-131521904D01*
X408336666Y-130712380D01*
X407955714Y-130712380D02*
X407336666Y-130712380D01*
X407670000Y-131093333D01*
X407527142Y-131093333D01*
X407431904Y-131140952D01*
X407384285Y-131188571D01*
X407336666Y-131283809D01*
X407336666Y-131521904D01*
X407384285Y-131617142D01*
X407431904Y-131664761D01*
X407527142Y-131712380D01*
X407812857Y-131712380D01*
X407908095Y-131664761D01*
X407955714Y-131617142D01*
X407003333Y-130712380D02*
X406384285Y-130712380D01*
X406717619Y-131093333D01*
X406574761Y-131093333D01*
X406479523Y-131140952D01*
X406431904Y-131188571D01*
X406384285Y-131283809D01*
X406384285Y-131521904D01*
X406431904Y-131617142D01*
X406479523Y-131664761D01*
X406574761Y-131712380D01*
X406860476Y-131712380D01*
X406955714Y-131664761D01*
X407003333Y-131617142D01*
X476853095Y-139567380D02*
X476853095Y-140376904D01*
X476805476Y-140472142D01*
X476757857Y-140519761D01*
X476662619Y-140567380D01*
X476472142Y-140567380D01*
X476376904Y-140519761D01*
X476329285Y-140472142D01*
X476281666Y-140376904D01*
X476281666Y-139567380D01*
X475900714Y-139567380D02*
X475281666Y-139567380D01*
X475615000Y-139948333D01*
X475472142Y-139948333D01*
X475376904Y-139995952D01*
X475329285Y-140043571D01*
X475281666Y-140138809D01*
X475281666Y-140376904D01*
X475329285Y-140472142D01*
X475376904Y-140519761D01*
X475472142Y-140567380D01*
X475757857Y-140567380D01*
X475853095Y-140519761D01*
X475900714Y-140472142D01*
X474900714Y-139662619D02*
X474853095Y-139615000D01*
X474757857Y-139567380D01*
X474519761Y-139567380D01*
X474424523Y-139615000D01*
X474376904Y-139662619D01*
X474329285Y-139757857D01*
X474329285Y-139853095D01*
X474376904Y-139995952D01*
X474948333Y-140567380D01*
X474329285Y-140567380D01*
X476853095Y-170432380D02*
X476853095Y-171241904D01*
X476805476Y-171337142D01*
X476757857Y-171384761D01*
X476662619Y-171432380D01*
X476472142Y-171432380D01*
X476376904Y-171384761D01*
X476329285Y-171337142D01*
X476281666Y-171241904D01*
X476281666Y-170432380D01*
X475900714Y-170432380D02*
X475281666Y-170432380D01*
X475615000Y-170813333D01*
X475472142Y-170813333D01*
X475376904Y-170860952D01*
X475329285Y-170908571D01*
X475281666Y-171003809D01*
X475281666Y-171241904D01*
X475329285Y-171337142D01*
X475376904Y-171384761D01*
X475472142Y-171432380D01*
X475757857Y-171432380D01*
X475853095Y-171384761D01*
X475900714Y-171337142D01*
X474329285Y-171432380D02*
X474900714Y-171432380D01*
X474615000Y-171432380D02*
X474615000Y-170432380D01*
X474710238Y-170575238D01*
X474805476Y-170670476D01*
X474900714Y-170718095D01*
X421608095Y-143412379D02*
X421608095Y-144221903D01*
X421560476Y-144317141D01*
X421512857Y-144364760D01*
X421417619Y-144412379D01*
X421227142Y-144412379D01*
X421131904Y-144364760D01*
X421084285Y-144317141D01*
X421036666Y-144221903D01*
X421036666Y-143412379D01*
X420655714Y-143412379D02*
X420036666Y-143412379D01*
X420370000Y-143793332D01*
X420227142Y-143793332D01*
X420131904Y-143840951D01*
X420084285Y-143888570D01*
X420036666Y-143983808D01*
X420036666Y-144221903D01*
X420084285Y-144317141D01*
X420131904Y-144364760D01*
X420227142Y-144412379D01*
X420512857Y-144412379D01*
X420608095Y-144364760D01*
X420655714Y-144317141D01*
X419417619Y-143412379D02*
X419322380Y-143412379D01*
X419227142Y-143459999D01*
X419179523Y-143507618D01*
X419131904Y-143602856D01*
X419084285Y-143793332D01*
X419084285Y-144031427D01*
X419131904Y-144221903D01*
X419179523Y-144317141D01*
X419227142Y-144364760D01*
X419322380Y-144412379D01*
X419417619Y-144412379D01*
X419512857Y-144364760D01*
X419560476Y-144317141D01*
X419608095Y-144221903D01*
X419655714Y-144031427D01*
X419655714Y-143793332D01*
X419608095Y-143602856D01*
X419560476Y-143507618D01*
X419512857Y-143459999D01*
X419417619Y-143412379D01*
X421608095Y-130712380D02*
X421608095Y-131521904D01*
X421560476Y-131617142D01*
X421512857Y-131664761D01*
X421417619Y-131712380D01*
X421227142Y-131712380D01*
X421131904Y-131664761D01*
X421084285Y-131617142D01*
X421036666Y-131521904D01*
X421036666Y-130712380D01*
X420608095Y-130807619D02*
X420560476Y-130760000D01*
X420465238Y-130712380D01*
X420227142Y-130712380D01*
X420131904Y-130760000D01*
X420084285Y-130807619D01*
X420036666Y-130902857D01*
X420036666Y-130998095D01*
X420084285Y-131140952D01*
X420655714Y-131712380D01*
X420036666Y-131712380D01*
X419560476Y-131712380D02*
X419370000Y-131712380D01*
X419274761Y-131664761D01*
X419227142Y-131617142D01*
X419131904Y-131474285D01*
X419084285Y-131283809D01*
X419084285Y-130902857D01*
X419131904Y-130807619D01*
X419179523Y-130760000D01*
X419274761Y-130712380D01*
X419465238Y-130712380D01*
X419560476Y-130760000D01*
X419608095Y-130807619D01*
X419655714Y-130902857D01*
X419655714Y-131140952D01*
X419608095Y-131236190D01*
X419560476Y-131283809D01*
X419465238Y-131331428D01*
X419274761Y-131331428D01*
X419179523Y-131283809D01*
X419131904Y-131236190D01*
X419084285Y-131140952D01*
X456533095Y-139567380D02*
X456533095Y-140376904D01*
X456485476Y-140472142D01*
X456437857Y-140519761D01*
X456342619Y-140567380D01*
X456152142Y-140567380D01*
X456056904Y-140519761D01*
X456009285Y-140472142D01*
X455961666Y-140376904D01*
X455961666Y-139567380D01*
X455533095Y-139662619D02*
X455485476Y-139615000D01*
X455390238Y-139567380D01*
X455152142Y-139567380D01*
X455056904Y-139615000D01*
X455009285Y-139662619D01*
X454961666Y-139757857D01*
X454961666Y-139853095D01*
X455009285Y-139995952D01*
X455580714Y-140567380D01*
X454961666Y-140567380D01*
X454390238Y-139995952D02*
X454485476Y-139948333D01*
X454533095Y-139900714D01*
X454580714Y-139805476D01*
X454580714Y-139757857D01*
X454533095Y-139662619D01*
X454485476Y-139615000D01*
X454390238Y-139567380D01*
X454199761Y-139567380D01*
X454104523Y-139615000D01*
X454056904Y-139662619D01*
X454009285Y-139757857D01*
X454009285Y-139805476D01*
X454056904Y-139900714D01*
X454104523Y-139948333D01*
X454199761Y-139995952D01*
X454390238Y-139995952D01*
X454485476Y-140043571D01*
X454533095Y-140091190D01*
X454580714Y-140186428D01*
X454580714Y-140376904D01*
X454533095Y-140472142D01*
X454485476Y-140519761D01*
X454390238Y-140567380D01*
X454199761Y-140567380D01*
X454104523Y-140519761D01*
X454056904Y-140472142D01*
X454009285Y-140376904D01*
X454009285Y-140186428D01*
X454056904Y-140091190D01*
X454104523Y-140043571D01*
X454199761Y-139995952D01*
X456533095Y-170432380D02*
X456533095Y-171241904D01*
X456485476Y-171337142D01*
X456437857Y-171384761D01*
X456342619Y-171432380D01*
X456152142Y-171432380D01*
X456056904Y-171384761D01*
X456009285Y-171337142D01*
X455961666Y-171241904D01*
X455961666Y-170432380D01*
X455533095Y-170527619D02*
X455485476Y-170480000D01*
X455390238Y-170432380D01*
X455152142Y-170432380D01*
X455056904Y-170480000D01*
X455009285Y-170527619D01*
X454961666Y-170622857D01*
X454961666Y-170718095D01*
X455009285Y-170860952D01*
X455580714Y-171432380D01*
X454961666Y-171432380D01*
X454628333Y-170432380D02*
X453961666Y-170432380D01*
X454390238Y-171432380D01*
X434308095Y-143412379D02*
X434308095Y-144221903D01*
X434260476Y-144317141D01*
X434212857Y-144364760D01*
X434117619Y-144412379D01*
X433927142Y-144412379D01*
X433831904Y-144364760D01*
X433784285Y-144317141D01*
X433736666Y-144221903D01*
X433736666Y-143412379D01*
X433308095Y-143507618D02*
X433260476Y-143459999D01*
X433165238Y-143412379D01*
X432927142Y-143412379D01*
X432831904Y-143459999D01*
X432784285Y-143507618D01*
X432736666Y-143602856D01*
X432736666Y-143698094D01*
X432784285Y-143840951D01*
X433355714Y-144412379D01*
X432736666Y-144412379D01*
X431879523Y-143412379D02*
X432070000Y-143412379D01*
X432165238Y-143459999D01*
X432212857Y-143507618D01*
X432308095Y-143650475D01*
X432355714Y-143840951D01*
X432355714Y-144221903D01*
X432308095Y-144317141D01*
X432260476Y-144364760D01*
X432165238Y-144412379D01*
X431974761Y-144412379D01*
X431879523Y-144364760D01*
X431831904Y-144317141D01*
X431784285Y-144221903D01*
X431784285Y-143983808D01*
X431831904Y-143888570D01*
X431879523Y-143840951D01*
X431974761Y-143793332D01*
X432165238Y-143793332D01*
X432260476Y-143840951D01*
X432308095Y-143888570D01*
X432355714Y-143983808D01*
X434308095Y-130712380D02*
X434308095Y-131521904D01*
X434260476Y-131617142D01*
X434212857Y-131664761D01*
X434117619Y-131712380D01*
X433927142Y-131712380D01*
X433831904Y-131664761D01*
X433784285Y-131617142D01*
X433736666Y-131521904D01*
X433736666Y-130712380D01*
X433308095Y-130807619D02*
X433260476Y-130760000D01*
X433165238Y-130712380D01*
X432927142Y-130712380D01*
X432831904Y-130760000D01*
X432784285Y-130807619D01*
X432736666Y-130902857D01*
X432736666Y-130998095D01*
X432784285Y-131140952D01*
X433355714Y-131712380D01*
X432736666Y-131712380D01*
X431831904Y-130712380D02*
X432308095Y-130712380D01*
X432355714Y-131188571D01*
X432308095Y-131140952D01*
X432212857Y-131093333D01*
X431974761Y-131093333D01*
X431879523Y-131140952D01*
X431831904Y-131188571D01*
X431784285Y-131283809D01*
X431784285Y-131521904D01*
X431831904Y-131617142D01*
X431879523Y-131664761D01*
X431974761Y-131712380D01*
X432212857Y-131712380D01*
X432308095Y-131664761D01*
X432355714Y-131617142D01*
X396208095Y-168772380D02*
X396208095Y-169581904D01*
X396160476Y-169677142D01*
X396112857Y-169724761D01*
X396017619Y-169772380D01*
X395827142Y-169772380D01*
X395731904Y-169724761D01*
X395684285Y-169677142D01*
X395636666Y-169581904D01*
X395636666Y-168772380D01*
X395208095Y-168867619D02*
X395160476Y-168820000D01*
X395065238Y-168772380D01*
X394827142Y-168772380D01*
X394731904Y-168820000D01*
X394684285Y-168867619D01*
X394636666Y-168962857D01*
X394636666Y-169058095D01*
X394684285Y-169200952D01*
X395255714Y-169772380D01*
X394636666Y-169772380D01*
X393779523Y-169105714D02*
X393779523Y-169772380D01*
X394017619Y-168724761D02*
X394255714Y-169439047D01*
X393636666Y-169439047D01*
X396208095Y-161152380D02*
X396208095Y-161961904D01*
X396160476Y-162057142D01*
X396112857Y-162104761D01*
X396017619Y-162152380D01*
X395827142Y-162152380D01*
X395731904Y-162104761D01*
X395684285Y-162057142D01*
X395636666Y-161961904D01*
X395636666Y-161152380D01*
X395208095Y-161247619D02*
X395160476Y-161200000D01*
X395065238Y-161152380D01*
X394827142Y-161152380D01*
X394731904Y-161200000D01*
X394684285Y-161247619D01*
X394636666Y-161342857D01*
X394636666Y-161438095D01*
X394684285Y-161580952D01*
X395255714Y-162152380D01*
X394636666Y-162152380D01*
X394303333Y-161152380D02*
X393684285Y-161152380D01*
X394017619Y-161533333D01*
X393874761Y-161533333D01*
X393779523Y-161580952D01*
X393731904Y-161628571D01*
X393684285Y-161723809D01*
X393684285Y-161961904D01*
X393731904Y-162057142D01*
X393779523Y-162104761D01*
X393874761Y-162152380D01*
X394160476Y-162152380D01*
X394255714Y-162104761D01*
X394303333Y-162057142D01*
X480028095Y-183727380D02*
X480028095Y-184536904D01*
X479980476Y-184632142D01*
X479932857Y-184679761D01*
X479837619Y-184727380D01*
X479647142Y-184727380D01*
X479551904Y-184679761D01*
X479504285Y-184632142D01*
X479456666Y-184536904D01*
X479456666Y-183727380D01*
X479028095Y-183822619D02*
X478980476Y-183775000D01*
X478885238Y-183727380D01*
X478647142Y-183727380D01*
X478551904Y-183775000D01*
X478504285Y-183822619D01*
X478456666Y-183917857D01*
X478456666Y-184013095D01*
X478504285Y-184155952D01*
X479075714Y-184727380D01*
X478456666Y-184727380D01*
X478075714Y-183822619D02*
X478028095Y-183775000D01*
X477932857Y-183727380D01*
X477694761Y-183727380D01*
X477599523Y-183775000D01*
X477551904Y-183822619D01*
X477504285Y-183917857D01*
X477504285Y-184013095D01*
X477551904Y-184155952D01*
X478123333Y-184727380D01*
X477504285Y-184727380D01*
X480028095Y-193887380D02*
X480028095Y-194696904D01*
X479980476Y-194792142D01*
X479932857Y-194839761D01*
X479837619Y-194887380D01*
X479647142Y-194887380D01*
X479551904Y-194839761D01*
X479504285Y-194792142D01*
X479456666Y-194696904D01*
X479456666Y-193887380D01*
X479028095Y-193982619D02*
X478980476Y-193935000D01*
X478885238Y-193887380D01*
X478647142Y-193887380D01*
X478551904Y-193935000D01*
X478504285Y-193982619D01*
X478456666Y-194077857D01*
X478456666Y-194173095D01*
X478504285Y-194315952D01*
X479075714Y-194887380D01*
X478456666Y-194887380D01*
X477504285Y-194887380D02*
X478075714Y-194887380D01*
X477790000Y-194887380D02*
X477790000Y-193887380D01*
X477885238Y-194030238D01*
X477980476Y-194125476D01*
X478075714Y-194173095D01*
X396208095Y-114852380D02*
X396208095Y-115661904D01*
X396160476Y-115757142D01*
X396112857Y-115804761D01*
X396017619Y-115852380D01*
X395827142Y-115852380D01*
X395731904Y-115804761D01*
X395684285Y-115757142D01*
X395636666Y-115661904D01*
X395636666Y-114852380D01*
X395208095Y-114947619D02*
X395160476Y-114900000D01*
X395065238Y-114852380D01*
X394827142Y-114852380D01*
X394731904Y-114900000D01*
X394684285Y-114947619D01*
X394636666Y-115042857D01*
X394636666Y-115138095D01*
X394684285Y-115280952D01*
X395255714Y-115852380D01*
X394636666Y-115852380D01*
X394017619Y-114852380D02*
X393922380Y-114852380D01*
X393827142Y-114900000D01*
X393779523Y-114947619D01*
X393731904Y-115042857D01*
X393684285Y-115233333D01*
X393684285Y-115471428D01*
X393731904Y-115661904D01*
X393779523Y-115757142D01*
X393827142Y-115804761D01*
X393922380Y-115852380D01*
X394017619Y-115852380D01*
X394112857Y-115804761D01*
X394160476Y-115757142D01*
X394208095Y-115661904D01*
X394255714Y-115471428D01*
X394255714Y-115233333D01*
X394208095Y-115042857D01*
X394160476Y-114947619D01*
X394112857Y-114900000D01*
X394017619Y-114852380D01*
X396208095Y-103422380D02*
X396208095Y-104231904D01*
X396160476Y-104327142D01*
X396112857Y-104374761D01*
X396017619Y-104422380D01*
X395827142Y-104422380D01*
X395731904Y-104374761D01*
X395684285Y-104327142D01*
X395636666Y-104231904D01*
X395636666Y-103422380D01*
X394636666Y-104422380D02*
X395208095Y-104422380D01*
X394922380Y-104422380D02*
X394922380Y-103422380D01*
X395017619Y-103565238D01*
X395112857Y-103660476D01*
X395208095Y-103708095D01*
X394160476Y-104422380D02*
X393970000Y-104422380D01*
X393874761Y-104374761D01*
X393827142Y-104327142D01*
X393731904Y-104184285D01*
X393684285Y-103993809D01*
X393684285Y-103612857D01*
X393731904Y-103517619D01*
X393779523Y-103470000D01*
X393874761Y-103422380D01*
X394065238Y-103422380D01*
X394160476Y-103470000D01*
X394208095Y-103517619D01*
X394255714Y-103612857D01*
X394255714Y-103850952D01*
X394208095Y-103946190D01*
X394160476Y-103993809D01*
X394065238Y-104041428D01*
X393874761Y-104041428D01*
X393779523Y-103993809D01*
X393731904Y-103946190D01*
X393684285Y-103850952D01*
X408908095Y-168772380D02*
X408908095Y-169581904D01*
X408860476Y-169677142D01*
X408812857Y-169724761D01*
X408717619Y-169772380D01*
X408527142Y-169772380D01*
X408431904Y-169724761D01*
X408384285Y-169677142D01*
X408336666Y-169581904D01*
X408336666Y-168772380D01*
X407336666Y-169772380D02*
X407908095Y-169772380D01*
X407622380Y-169772380D02*
X407622380Y-168772380D01*
X407717619Y-168915238D01*
X407812857Y-169010476D01*
X407908095Y-169058095D01*
X406765238Y-169200952D02*
X406860476Y-169153333D01*
X406908095Y-169105714D01*
X406955714Y-169010476D01*
X406955714Y-168962857D01*
X406908095Y-168867619D01*
X406860476Y-168820000D01*
X406765238Y-168772380D01*
X406574761Y-168772380D01*
X406479523Y-168820000D01*
X406431904Y-168867619D01*
X406384285Y-168962857D01*
X406384285Y-169010476D01*
X406431904Y-169105714D01*
X406479523Y-169153333D01*
X406574761Y-169200952D01*
X406765238Y-169200952D01*
X406860476Y-169248571D01*
X406908095Y-169296190D01*
X406955714Y-169391428D01*
X406955714Y-169581904D01*
X406908095Y-169677142D01*
X406860476Y-169724761D01*
X406765238Y-169772380D01*
X406574761Y-169772380D01*
X406479523Y-169724761D01*
X406431904Y-169677142D01*
X406384285Y-169581904D01*
X406384285Y-169391428D01*
X406431904Y-169296190D01*
X406479523Y-169248571D01*
X406574761Y-169200952D01*
X408908095Y-161152380D02*
X408908095Y-161961904D01*
X408860476Y-162057142D01*
X408812857Y-162104761D01*
X408717619Y-162152380D01*
X408527142Y-162152380D01*
X408431904Y-162104761D01*
X408384285Y-162057142D01*
X408336666Y-161961904D01*
X408336666Y-161152380D01*
X407336666Y-162152380D02*
X407908095Y-162152380D01*
X407622380Y-162152380D02*
X407622380Y-161152380D01*
X407717619Y-161295238D01*
X407812857Y-161390476D01*
X407908095Y-161438095D01*
X407003333Y-161152380D02*
X406336666Y-161152380D01*
X406765238Y-162152380D01*
X471138095Y-183727380D02*
X471138095Y-184536904D01*
X471090476Y-184632142D01*
X471042857Y-184679761D01*
X470947619Y-184727380D01*
X470757142Y-184727380D01*
X470661904Y-184679761D01*
X470614285Y-184632142D01*
X470566666Y-184536904D01*
X470566666Y-183727380D01*
X469566666Y-184727380D02*
X470138095Y-184727380D01*
X469852380Y-184727380D02*
X469852380Y-183727380D01*
X469947619Y-183870238D01*
X470042857Y-183965476D01*
X470138095Y-184013095D01*
X468709523Y-183727380D02*
X468900000Y-183727380D01*
X468995238Y-183775000D01*
X469042857Y-183822619D01*
X469138095Y-183965476D01*
X469185714Y-184155952D01*
X469185714Y-184536904D01*
X469138095Y-184632142D01*
X469090476Y-184679761D01*
X468995238Y-184727380D01*
X468804761Y-184727380D01*
X468709523Y-184679761D01*
X468661904Y-184632142D01*
X468614285Y-184536904D01*
X468614285Y-184298809D01*
X468661904Y-184203571D01*
X468709523Y-184155952D01*
X468804761Y-184108333D01*
X468995238Y-184108333D01*
X469090476Y-184155952D01*
X469138095Y-184203571D01*
X469185714Y-184298809D01*
X471138095Y-193887380D02*
X471138095Y-194696904D01*
X471090476Y-194792142D01*
X471042857Y-194839761D01*
X470947619Y-194887380D01*
X470757142Y-194887380D01*
X470661904Y-194839761D01*
X470614285Y-194792142D01*
X470566666Y-194696904D01*
X470566666Y-193887380D01*
X469566666Y-194887380D02*
X470138095Y-194887380D01*
X469852380Y-194887380D02*
X469852380Y-193887380D01*
X469947619Y-194030238D01*
X470042857Y-194125476D01*
X470138095Y-194173095D01*
X468661904Y-193887380D02*
X469138095Y-193887380D01*
X469185714Y-194363571D01*
X469138095Y-194315952D01*
X469042857Y-194268333D01*
X468804761Y-194268333D01*
X468709523Y-194315952D01*
X468661904Y-194363571D01*
X468614285Y-194458809D01*
X468614285Y-194696904D01*
X468661904Y-194792142D01*
X468709523Y-194839761D01*
X468804761Y-194887380D01*
X469042857Y-194887380D01*
X469138095Y-194839761D01*
X469185714Y-194792142D01*
X408908095Y-114852380D02*
X408908095Y-115661904D01*
X408860476Y-115757142D01*
X408812857Y-115804761D01*
X408717619Y-115852380D01*
X408527142Y-115852380D01*
X408431904Y-115804761D01*
X408384285Y-115757142D01*
X408336666Y-115661904D01*
X408336666Y-114852380D01*
X407336666Y-115852380D02*
X407908095Y-115852380D01*
X407622380Y-115852380D02*
X407622380Y-114852380D01*
X407717619Y-114995238D01*
X407812857Y-115090476D01*
X407908095Y-115138095D01*
X406479523Y-115185714D02*
X406479523Y-115852380D01*
X406717619Y-114804761D02*
X406955714Y-115519047D01*
X406336666Y-115519047D01*
X408908095Y-103422380D02*
X408908095Y-104231904D01*
X408860476Y-104327142D01*
X408812857Y-104374761D01*
X408717619Y-104422380D01*
X408527142Y-104422380D01*
X408431904Y-104374761D01*
X408384285Y-104327142D01*
X408336666Y-104231904D01*
X408336666Y-103422380D01*
X407336666Y-104422380D02*
X407908095Y-104422380D01*
X407622380Y-104422380D02*
X407622380Y-103422380D01*
X407717619Y-103565238D01*
X407812857Y-103660476D01*
X407908095Y-103708095D01*
X407003333Y-103422380D02*
X406384285Y-103422380D01*
X406717619Y-103803333D01*
X406574761Y-103803333D01*
X406479523Y-103850952D01*
X406431904Y-103898571D01*
X406384285Y-103993809D01*
X406384285Y-104231904D01*
X406431904Y-104327142D01*
X406479523Y-104374761D01*
X406574761Y-104422380D01*
X406860476Y-104422380D01*
X406955714Y-104374761D01*
X407003333Y-104327142D01*
X421608095Y-168772380D02*
X421608095Y-169581904D01*
X421560476Y-169677142D01*
X421512857Y-169724761D01*
X421417619Y-169772380D01*
X421227142Y-169772380D01*
X421131904Y-169724761D01*
X421084285Y-169677142D01*
X421036666Y-169581904D01*
X421036666Y-168772380D01*
X420036666Y-169772380D02*
X420608095Y-169772380D01*
X420322380Y-169772380D02*
X420322380Y-168772380D01*
X420417619Y-168915238D01*
X420512857Y-169010476D01*
X420608095Y-169058095D01*
X419655714Y-168867619D02*
X419608095Y-168820000D01*
X419512857Y-168772380D01*
X419274761Y-168772380D01*
X419179523Y-168820000D01*
X419131904Y-168867619D01*
X419084285Y-168962857D01*
X419084285Y-169058095D01*
X419131904Y-169200952D01*
X419703333Y-169772380D01*
X419084285Y-169772380D01*
X421608095Y-161152380D02*
X421608095Y-161961904D01*
X421560476Y-162057142D01*
X421512857Y-162104761D01*
X421417619Y-162152380D01*
X421227142Y-162152380D01*
X421131904Y-162104761D01*
X421084285Y-162057142D01*
X421036666Y-161961904D01*
X421036666Y-161152380D01*
X420036666Y-162152380D02*
X420608095Y-162152380D01*
X420322380Y-162152380D02*
X420322380Y-161152380D01*
X420417619Y-161295238D01*
X420512857Y-161390476D01*
X420608095Y-161438095D01*
X419084285Y-162152380D02*
X419655714Y-162152380D01*
X419370000Y-162152380D02*
X419370000Y-161152380D01*
X419465238Y-161295238D01*
X419560476Y-161390476D01*
X419655714Y-161438095D01*
X462248095Y-183727380D02*
X462248095Y-184536904D01*
X462200476Y-184632142D01*
X462152857Y-184679761D01*
X462057619Y-184727380D01*
X461867142Y-184727380D01*
X461771904Y-184679761D01*
X461724285Y-184632142D01*
X461676666Y-184536904D01*
X461676666Y-183727380D01*
X460676666Y-184727380D02*
X461248095Y-184727380D01*
X460962380Y-184727380D02*
X460962380Y-183727380D01*
X461057619Y-183870238D01*
X461152857Y-183965476D01*
X461248095Y-184013095D01*
X460057619Y-183727380D02*
X459962380Y-183727380D01*
X459867142Y-183775000D01*
X459819523Y-183822619D01*
X459771904Y-183917857D01*
X459724285Y-184108333D01*
X459724285Y-184346428D01*
X459771904Y-184536904D01*
X459819523Y-184632142D01*
X459867142Y-184679761D01*
X459962380Y-184727380D01*
X460057619Y-184727380D01*
X460152857Y-184679761D01*
X460200476Y-184632142D01*
X460248095Y-184536904D01*
X460295714Y-184346428D01*
X460295714Y-184108333D01*
X460248095Y-183917857D01*
X460200476Y-183822619D01*
X460152857Y-183775000D01*
X460057619Y-183727380D01*
X461771904Y-193887380D02*
X461771904Y-194696904D01*
X461724285Y-194792142D01*
X461676666Y-194839761D01*
X461581428Y-194887380D01*
X461390952Y-194887380D01*
X461295714Y-194839761D01*
X461248095Y-194792142D01*
X461200476Y-194696904D01*
X461200476Y-193887380D01*
X460676666Y-194887380D02*
X460486190Y-194887380D01*
X460390952Y-194839761D01*
X460343333Y-194792142D01*
X460248095Y-194649285D01*
X460200476Y-194458809D01*
X460200476Y-194077857D01*
X460248095Y-193982619D01*
X460295714Y-193935000D01*
X460390952Y-193887380D01*
X460581428Y-193887380D01*
X460676666Y-193935000D01*
X460724285Y-193982619D01*
X460771904Y-194077857D01*
X460771904Y-194315952D01*
X460724285Y-194411190D01*
X460676666Y-194458809D01*
X460581428Y-194506428D01*
X460390952Y-194506428D01*
X460295714Y-194458809D01*
X460248095Y-194411190D01*
X460200476Y-194315952D01*
X421131904Y-114852380D02*
X421131904Y-115661904D01*
X421084285Y-115757142D01*
X421036666Y-115804761D01*
X420941428Y-115852380D01*
X420750952Y-115852380D01*
X420655714Y-115804761D01*
X420608095Y-115757142D01*
X420560476Y-115661904D01*
X420560476Y-114852380D01*
X419941428Y-115280952D02*
X420036666Y-115233333D01*
X420084285Y-115185714D01*
X420131904Y-115090476D01*
X420131904Y-115042857D01*
X420084285Y-114947619D01*
X420036666Y-114900000D01*
X419941428Y-114852380D01*
X419750952Y-114852380D01*
X419655714Y-114900000D01*
X419608095Y-114947619D01*
X419560476Y-115042857D01*
X419560476Y-115090476D01*
X419608095Y-115185714D01*
X419655714Y-115233333D01*
X419750952Y-115280952D01*
X419941428Y-115280952D01*
X420036666Y-115328571D01*
X420084285Y-115376190D01*
X420131904Y-115471428D01*
X420131904Y-115661904D01*
X420084285Y-115757142D01*
X420036666Y-115804761D01*
X419941428Y-115852380D01*
X419750952Y-115852380D01*
X419655714Y-115804761D01*
X419608095Y-115757142D01*
X419560476Y-115661904D01*
X419560476Y-115471428D01*
X419608095Y-115376190D01*
X419655714Y-115328571D01*
X419750952Y-115280952D01*
X421131904Y-103422380D02*
X421131904Y-104231904D01*
X421084285Y-104327142D01*
X421036666Y-104374761D01*
X420941428Y-104422380D01*
X420750952Y-104422380D01*
X420655714Y-104374761D01*
X420608095Y-104327142D01*
X420560476Y-104231904D01*
X420560476Y-103422380D01*
X420179523Y-103422380D02*
X419512857Y-103422380D01*
X419941428Y-104422380D01*
X433831904Y-168772380D02*
X433831904Y-169581904D01*
X433784285Y-169677142D01*
X433736666Y-169724761D01*
X433641428Y-169772380D01*
X433450952Y-169772380D01*
X433355714Y-169724761D01*
X433308095Y-169677142D01*
X433260476Y-169581904D01*
X433260476Y-168772380D01*
X432355714Y-168772380D02*
X432546190Y-168772380D01*
X432641428Y-168820000D01*
X432689047Y-168867619D01*
X432784285Y-169010476D01*
X432831904Y-169200952D01*
X432831904Y-169581904D01*
X432784285Y-169677142D01*
X432736666Y-169724761D01*
X432641428Y-169772380D01*
X432450952Y-169772380D01*
X432355714Y-169724761D01*
X432308095Y-169677142D01*
X432260476Y-169581904D01*
X432260476Y-169343809D01*
X432308095Y-169248571D01*
X432355714Y-169200952D01*
X432450952Y-169153333D01*
X432641428Y-169153333D01*
X432736666Y-169200952D01*
X432784285Y-169248571D01*
X432831904Y-169343809D01*
X433831904Y-161152380D02*
X433831904Y-161961904D01*
X433784285Y-162057142D01*
X433736666Y-162104761D01*
X433641428Y-162152380D01*
X433450952Y-162152380D01*
X433355714Y-162104761D01*
X433308095Y-162057142D01*
X433260476Y-161961904D01*
X433260476Y-161152380D01*
X432308095Y-161152380D02*
X432784285Y-161152380D01*
X432831904Y-161628571D01*
X432784285Y-161580952D01*
X432689047Y-161533333D01*
X432450952Y-161533333D01*
X432355714Y-161580952D01*
X432308095Y-161628571D01*
X432260476Y-161723809D01*
X432260476Y-161961904D01*
X432308095Y-162057142D01*
X432355714Y-162104761D01*
X432450952Y-162152380D01*
X432689047Y-162152380D01*
X432784285Y-162104761D01*
X432831904Y-162057142D01*
X452881904Y-183727380D02*
X452881904Y-184536904D01*
X452834285Y-184632142D01*
X452786666Y-184679761D01*
X452691428Y-184727380D01*
X452500952Y-184727380D01*
X452405714Y-184679761D01*
X452358095Y-184632142D01*
X452310476Y-184536904D01*
X452310476Y-183727380D01*
X451405714Y-184060714D02*
X451405714Y-184727380D01*
X451643809Y-183679761D02*
X451881904Y-184394047D01*
X451262857Y-184394047D01*
X452881904Y-193887380D02*
X452881904Y-194696904D01*
X452834285Y-194792142D01*
X452786666Y-194839761D01*
X452691428Y-194887380D01*
X452500952Y-194887380D01*
X452405714Y-194839761D01*
X452358095Y-194792142D01*
X452310476Y-194696904D01*
X452310476Y-193887380D01*
X451929523Y-193887380D02*
X451310476Y-193887380D01*
X451643809Y-194268333D01*
X451500952Y-194268333D01*
X451405714Y-194315952D01*
X451358095Y-194363571D01*
X451310476Y-194458809D01*
X451310476Y-194696904D01*
X451358095Y-194792142D01*
X451405714Y-194839761D01*
X451500952Y-194887380D01*
X451786666Y-194887380D01*
X451881904Y-194839761D01*
X451929523Y-194792142D01*
X433831904Y-114852380D02*
X433831904Y-115661904D01*
X433784285Y-115757142D01*
X433736666Y-115804761D01*
X433641428Y-115852380D01*
X433450952Y-115852380D01*
X433355714Y-115804761D01*
X433308095Y-115757142D01*
X433260476Y-115661904D01*
X433260476Y-114852380D01*
X432831904Y-114947619D02*
X432784285Y-114900000D01*
X432689047Y-114852380D01*
X432450952Y-114852380D01*
X432355714Y-114900000D01*
X432308095Y-114947619D01*
X432260476Y-115042857D01*
X432260476Y-115138095D01*
X432308095Y-115280952D01*
X432879523Y-115852380D01*
X432260476Y-115852380D01*
X433831904Y-103422380D02*
X433831904Y-104231904D01*
X433784285Y-104327142D01*
X433736666Y-104374761D01*
X433641428Y-104422380D01*
X433450952Y-104422380D01*
X433355714Y-104374761D01*
X433308095Y-104327142D01*
X433260476Y-104231904D01*
X433260476Y-103422380D01*
X432260476Y-104422380D02*
X432831904Y-104422380D01*
X432546190Y-104422380D02*
X432546190Y-103422380D01*
X432641428Y-103565238D01*
X432736666Y-103660476D01*
X432831904Y-103708095D01*
M02*
